<?xml version="1.0" standalone="no"?>
<!DOCTYPE svg PUBLIC "-//W3C//DTD SVG 20010904//EN"
 "http://www.w3.org/TR/2001/REC-SVG-20010904/DTD/svg10.dtd">
<svg version="1.0" xmlns="http://www.w3.org/2000/svg"
 width="264.000000pt" height="264.000000pt" viewBox="0 0 264.000000 264.000000"
 preserveAspectRatio="xMidYMid meet">
<metadata>
Created by potrace 1.11, written by Peter Selinger 2001-2013
</metadata>
<g transform="translate(0.000000,264.000000) scale(0.100000,-0.100000)"
fill="#000000" stroke="none">
<path d="M0 1320 l0 -350 1320 0 1320 0 0 350 0 350 -1320 0 -1320 0 0 -350z
m395 128 c22 -23 39 -45 38 -50 -5 -15 10 -8 85 39 71 44 80 47 156 50 l81 4
-25 -20 c-14 -11 -66 -44 -117 -73 -51 -29 -92 -58 -93 -65 0 -6 29 -37 65
-68 83 -73 86 -95 12 -95 -51 0 -55 2 -107 55 -30 30 -58 55 -62 55 -5 0 -50
-25 -100 -55 -89 -54 -93 -55 -165 -55 -41 0 -72 4 -69 9 3 4 54 36 114 71 59
34 119 70 132 81 l25 19 -55 53 c-93 91 -92 87 -18 87 62 0 65 -1 103 -42z
m935 27 c0 -22 -22 -65 -34 -65 -6 0 -109 -1 -228 -1 -120 0 -218 -1 -218 -4
0 -2 -3 -10 -6 -19 -5 -14 15 -16 190 -16 108 0 196 -2 196 -4 0 -2 -7 -20
-15 -40 l-15 -36 -197 -2 c-178 -3 -198 -5 -201 -20 -3 -16 15 -18 222 -20
l226 -3 -18 -35 -17 -35 -274 -3 c-258 -2 -273 -1 -266 15 4 10 27 74 52 143
25 69 53 133 61 143 14 15 40 17 279 17 223 0 263 -2 263 -15z m590 6 c0 -4
-5 -22 -11 -40 -8 -21 -18 -31 -32 -32 -12 0 -116 -1 -232 -2 -191 -2 -210 -4
-213 -19 -3 -17 11 -18 187 -18 105 0 191 -4 191 -9 0 -4 -5 -22 -11 -40 l-11
-31 -198 0 c-189 0 -198 -1 -203 -20 -5 -20 0 -20 219 -20 150 0 224 -3 224
-10 0 -6 -7 -24 -15 -40 l-16 -30 -269 0 c-149 0 -270 3 -270 8 1 21 111 297
122 303 17 11 538 11 538 0z m504 -11 c47 -24 68 -61 68 -117 0 -59 -19 -100
-61 -131 -64 -47 -98 -52 -347 -52 -129 0 -234 3 -234 8 0 13 103 287 113 300
16 20 421 13 461 -8z"/>
<path d="M2026 1402 c-3 -5 -15 -35 -27 -68 -12 -32 -28 -65 -37 -71 -13 -11
19 -13 169 -13 155 0 189 3 219 18 73 36 80 113 12 131 -44 13 -329 15 -336 3z"/>
</g>
</svg>
