<?xml version="1.0" encoding="utf-8"?>
<!-- Generator: Adobe Illustrator 23.0.1, SVG Export Plug-In . SVG Version: 6.00 Build 0)  -->
<svg version="1.1" id="Layer_1" xmlns="http://www.w3.org/2000/svg" xmlns:xlink="http://www.w3.org/1999/xlink" x="0px" y="0px"
	 viewBox="0 0 45 45" style="enable-background:new 0 0 45 45;" xml:space="preserve">
<style type="text/css">
	.st0{fill:#ffffff;}
</style>
<path class="st0" d="M28.18,11.6H17.82c-2.91,0-5.28,2.37-5.28,5.28v10.25c0,2.91,2.37,5.28,5.28,5.28h10.36
	c2.91,0,5.28-2.37,5.28-5.28V16.88C33.46,13.96,31.09,11.6,28.18,11.6z M22.89,28.71c-3.4,0-6.15-2.75-6.15-6.15
	c0-3.4,2.75-6.15,6.15-6.15c3.4,0,6.15,2.75,6.15,6.15S26.29,28.71,22.89,28.71L22.89,28.71z M29.93,17.89
	c-1.16,0-2.11-0.94-2.11-2.11c0-1.16,0.94-2.11,2.11-2.11c1.16,0,2.1,0.94,2.1,2.11C32.03,16.94,31.09,17.89,29.93,17.89z
	 M22.89,18.03c-2.49,0-4.53,2.03-4.53,4.53c0,2.49,2.03,4.53,4.53,4.53c2.49,0,4.53-2.03,4.53-4.53
	C27.42,20.06,25.39,18.03,22.89,18.03L22.89,18.03z M23,1C11.4,1,2,10.4,2,22s9.4,21,21,21c11.6,0,21-9.4,21-21S34.6,1,23,1z
	 M35.08,27.13c0,3.8-3.1,6.9-6.9,6.9H17.82c-3.8,0-6.9-3.1-6.9-6.9V16.87c0-3.8,3.1-6.9,6.9-6.9h10.36c3.8,0,6.9,3.11,6.9,6.91
	V27.13L35.08,27.13z"/>
</svg>
